<svg version="1.1" id="Layer_1" xmlns="http://www.w3.org/2000/svg" xmlns:xlink="http://www.w3.org/1999/xlink" x="0px" y="0px"
	 width="100%" viewBox="0 0 1080 1080" enable-background="new 0 0 1080 1080" xml:space="preserve">
<path fill="#D9D9D9" opacity="1.000000" stroke="none" 
	d="
M499.000000,0.999992 
	C527.020874,1.000000 555.041809,1.000000 583.210815,1.360214 
	C585.039246,2.146563 586.698242,2.786994 588.404175,2.957444 
	C592.970032,3.413660 597.593872,3.404699 602.126343,4.056321 
	C612.536560,5.552987 622.935181,7.171933 633.284912,9.038343 
	C645.812439,11.297481 658.563049,12.917957 670.721313,16.498209 
	C694.031311,23.362284 717.135681,31.005421 740.057983,39.083954 
	C765.086304,47.904739 788.924805,59.659088 811.508667,73.433769 
	C832.372131,86.159119 852.408020,100.345459 872.103394,114.845909 
	C885.609619,124.789627 898.580261,135.684692 910.580322,147.394501 
	C926.163818,162.601089 940.952087,178.682983 955.307983,195.066864 
	C965.538391,206.742554 975.040527,219.156052 983.901123,231.911682 
	C1002.429993,258.585358 1019.299011,286.300323 1031.997559,316.313141 
	C1038.919067,332.671844 1045.892090,349.041931 1051.902832,365.744781 
	C1060.495728,389.622620 1067.262939,414.074585 1071.011230,439.236298 
	C1073.879272,458.489624 1076.327026,477.805389 1079.066772,497.078430 
	C1079.215332,498.122803 1080.333374,499.029297 1081.000000,500.000000 
	C1081.000000,527.020874 1081.000000,554.041809 1080.637939,581.209839 
	C1079.517212,586.285645 1078.620605,591.197815 1078.029663,596.146484 
	C1076.928467,605.368103 1076.643433,614.735474 1074.872925,623.818787 
	C1071.336060,641.965271 1067.109375,659.979980 1063.015625,678.014587 
	C1056.069336,708.614258 1044.849976,737.798767 1031.819336,766.174377 
	C1016.883850,798.698181 998.697021,829.407532 977.461060,858.378967 
	C960.981567,880.861206 942.991394,901.969971 923.502686,921.754456 
	C911.541809,933.896912 898.484192,945.022461 885.373291,955.949890 
	C873.194458,966.100342 860.557983,975.755188 847.651489,984.967712 
	C821.676758,1003.507996 794.040955,1019.237854 764.770020,1032.021606 
	C752.439331,1037.406860 740.320068,1043.422119 727.652710,1047.861206 
	C698.099670,1058.217285 668.296753,1067.872314 637.061096,1072.043945 
	C620.012390,1074.321167 602.970398,1076.650757 585.941101,1079.067139 
	C584.890503,1079.216309 583.977234,1080.333374 583.000000,1081.000000 
	C554.979126,1081.000000 526.958191,1081.000000 498.790161,1080.637939 
	C494.048798,1079.518066 489.464325,1078.693726 484.858398,1078.015015 
	C471.065430,1075.982666 457.117371,1074.705444 443.500366,1071.845459 
	C423.082184,1067.556885 402.686737,1062.889038 382.656006,1057.089233 
	C351.494019,1048.066528 321.438385,1035.945923 292.947601,1020.343384 
	C275.774506,1010.938843 258.519562,1001.478271 242.352936,990.495056 
	C223.773132,977.872375 205.859344,964.134827 188.595154,949.754333 
	C175.734207,939.041687 164.123734,926.772827 152.410995,914.754028 
	C143.128738,905.229248 134.202759,895.308167 125.724747,885.061523 
	C115.805580,873.073059 105.965172,860.941284 97.116821,848.161194 
	C78.518425,821.298645 61.996639,793.154114 49.083462,763.071594 
	C41.885578,746.303528 34.725624,729.457703 28.812737,712.213501 
	C19.263832,684.365295 11.787546,655.904724 8.016403,626.610901 
	C6.208611,612.568176 4.693202,598.488037 2.926308,584.439758 
	C2.815620,583.559631 1.666173,582.810242 0.999997,582.000000 
	C1.000000,554.645752 1.000000,527.291565 1.363379,499.790497 
	C2.142292,498.960541 2.855576,498.307281 2.927472,497.589691 
	C3.677422,490.104767 4.163030,482.590546 5.039287,475.121674 
	C6.231068,464.963409 7.080070,454.706665 9.189641,444.727539 
	C12.641562,428.398499 16.864891,412.227051 20.989571,396.046906 
	C28.257643,367.536011 38.906059,340.220886 51.195026,313.561829 
	C56.785065,301.435120 63.106762,289.618439 69.612282,277.948608 
	C76.175110,266.175995 82.793388,254.356186 90.444931,243.288177 
	C100.191666,229.189484 110.610184,215.505981 121.459038,202.231918 
	C132.859375,188.283096 144.768524,174.708099 157.108551,161.583939 
	C165.446548,152.716095 174.680679,144.638107 183.934586,136.696991 
	C196.782547,125.671677 209.524170,114.414818 223.211182,104.499222 
	C245.868607,88.085007 269.559204,73.146912 294.430695,60.244827 
	C303.960968,55.300964 313.777802,50.833149 323.720734,46.777771 
	C341.200989,39.648186 358.623138,32.222324 376.539154,26.354101 
	C398.513428,19.156630 420.908142,13.154424 443.915131,9.979897 
	C461.288971,7.582635 478.685394,5.349141 496.056458,2.932587 
	C497.106903,2.786456 498.021942,1.666707 499.000000,0.999992 
M887.875732,910.410278 
	C897.052490,900.993530 906.413757,891.748535 915.368835,882.125488 
	C936.048035,859.903687 954.218323,835.744324 970.361267,810.038879 
	C990.276672,778.326416 1006.698730,744.910156 1018.928345,709.520142 
	C1032.439331,670.421936 1041.832153,630.387207 1045.127563,589.033386 
	C1046.776611,568.341064 1049.102783,547.695496 1047.096191,526.878662 
	C1044.979248,504.919861 1043.622192,482.873322 1040.935303,460.987640 
	C1037.583862,433.688324 1030.453369,407.143646 1021.765198,381.102478 
	C1009.393738,344.021210 992.887329,308.807953 972.276550,275.541901 
	C954.876221,247.457611 935.221130,221.016251 912.372375,197.211624 
	C896.726562,180.911301 880.032349,165.532089 862.992310,150.675232 
	C837.820740,128.728577 809.881653,110.594131 780.480530,94.826340 
	C750.630249,78.817635 719.608948,65.561310 687.089539,55.788433 
	C650.000366,44.642250 612.120850,37.892372 573.582825,35.232185 
	C556.385925,34.045120 539.022644,34.445053 521.771912,35.099430 
	C505.706238,35.708847 489.643738,37.209431 473.661530,39.033672 
	C445.020905,42.302769 416.999878,48.776772 389.519348,57.373798 
	C351.872131,69.151360 316.067291,85.139114 282.153809,105.367096 
	C250.167023,124.445847 220.342712,146.449890 193.540482,172.261658 
	C178.824997,186.433319 165.066696,201.661789 151.573837,217.025894 
	C129.522125,242.135834 111.394600,270.075623 95.466583,299.364838 
	C78.156166,331.196045 64.543602,364.619202 54.296783,399.418518 
	C41.208416,443.867981 35.085476,489.348236 34.197418,535.545837 
	C33.926540,549.637268 35.290234,563.761780 35.948341,577.869080 
	C37.057728,601.650085 40.886921,625.030396 45.765778,648.310608 
	C57.393646,703.794861 78.429810,755.536377 107.702477,803.908142 
	C135.297104,849.506897 169.451309,889.655090 209.853027,924.523926 
	C233.740906,945.140442 259.242737,963.411438 286.470734,979.283569 
	C328.168488,1003.590576 372.446625,1021.772827 419.400696,1032.835449 
	C440.354309,1037.772217 461.767883,1041.010986 483.123962,1043.903809 
	C499.705444,1046.149902 516.505554,1047.353516 533.238098,1047.742188 
	C548.157532,1048.088623 563.185913,1047.367798 578.043457,1045.886719 
	C599.487549,1043.749146 620.968262,1041.321411 642.165222,1037.521851 
	C670.874390,1032.375977 698.641907,1023.506104 725.831848,1012.909912 
	C766.241211,997.161926 804.074402,976.628418 838.757324,950.633301 
	C855.486877,938.094421 871.150085,924.132812 887.875732,910.410278 
z"/>
<path fill="#000000" opacity="1.000000" stroke="none" 
	d="
M583.468689,1081.000000 
	C583.977234,1080.333374 584.890503,1079.216309 585.941101,1079.067139 
	C602.970398,1076.650757 620.012390,1074.321167 637.061096,1072.043945 
	C668.296753,1067.872314 698.099670,1058.217285 727.652710,1047.861206 
	C740.320068,1043.422119 752.439331,1037.406860 764.770020,1032.021606 
	C794.040955,1019.237854 821.676758,1003.507996 847.651489,984.967712 
	C860.557983,975.755188 873.194458,966.100342 885.373291,955.949890 
	C898.484192,945.022461 911.541809,933.896912 923.502686,921.754456 
	C942.991394,901.969971 960.981567,880.861206 977.461060,858.378967 
	C998.697021,829.407532 1016.883850,798.698181 1031.819336,766.174377 
	C1044.849976,737.798767 1056.069336,708.614258 1063.015625,678.014587 
	C1067.109375,659.979980 1071.336060,641.965271 1074.872925,623.818787 
	C1076.643433,614.735474 1076.928467,605.368103 1078.029663,596.146484 
	C1078.620605,591.197815 1079.517212,586.285645 1080.637939,581.678467 
	C1081.000000,748.260315 1081.000000,914.520691 1081.000000,1081.000000 
	C915.312500,1081.000000 749.624939,1081.000000 583.468689,1081.000000 
z"/>
<path fill="#000000" opacity="1.000000" stroke="none" 
	d="
M0.999997,582.468628 
	C1.666173,582.810242 2.815620,583.559631 2.926308,584.439758 
	C4.693202,598.488037 6.208611,612.568176 8.016403,626.610901 
	C11.787546,655.904724 19.263832,684.365295 28.812737,712.213501 
	C34.725624,729.457703 41.885578,746.303528 49.083462,763.071594 
	C61.996639,793.154114 78.518425,821.298645 97.116821,848.161194 
	C105.965172,860.941284 115.805580,873.073059 125.724747,885.061523 
	C134.202759,895.308167 143.128738,905.229248 152.410995,914.754028 
	C164.123734,926.772827 175.734207,939.041687 188.595154,949.754333 
	C205.859344,964.134827 223.773132,977.872375 242.352936,990.495056 
	C258.519562,1001.478271 275.774506,1010.938843 292.947601,1020.343384 
	C321.438385,1035.945923 351.494019,1048.066528 382.656006,1057.089233 
	C402.686737,1062.889038 423.082184,1067.556885 443.500366,1071.845459 
	C457.117371,1074.705444 471.065430,1075.982666 484.858398,1078.015015 
	C489.464325,1078.693726 494.048798,1079.518066 498.321533,1080.637939 
	C332.406097,1081.000000 166.812195,1081.000000 1.000000,1081.000000 
	C1.000000,914.979187 1.000000,748.958252 0.999997,582.468628 
z"/>
<path fill="#000000" opacity="1.000000" stroke="none" 
	d="
M498.531342,0.999992 
	C498.021942,1.666707 497.106903,2.786456 496.056458,2.932587 
	C478.685394,5.349141 461.288971,7.582635 443.915131,9.979897 
	C420.908142,13.154424 398.513428,19.156630 376.539154,26.354101 
	C358.623138,32.222324 341.200989,39.648186 323.720734,46.777771 
	C313.777802,50.833149 303.960968,55.300964 294.430695,60.244827 
	C269.559204,73.146912 245.868607,88.085007 223.211182,104.499222 
	C209.524170,114.414818 196.782547,125.671677 183.934586,136.696991 
	C174.680679,144.638107 165.446548,152.716095 157.108551,161.583939 
	C144.768524,174.708099 132.859375,188.283096 121.459038,202.231918 
	C110.610184,215.505981 100.191666,229.189484 90.444931,243.288177 
	C82.793388,254.356186 76.175110,266.175995 69.612282,277.948608 
	C63.106762,289.618439 56.785065,301.435120 51.195026,313.561829 
	C38.906059,340.220886 28.257643,367.536011 20.989571,396.046906 
	C16.864891,412.227051 12.641562,428.398499 9.189641,444.727539 
	C7.080070,454.706665 6.231068,464.963409 5.039287,475.121674 
	C4.163030,482.590546 3.677422,490.104767 2.927472,497.589691 
	C2.855576,498.307281 2.142292,498.960541 1.363379,499.321838 
	C1.000000,333.072906 1.000000,167.145782 1.000000,1.000000 
	C166.687500,1.000000 332.375092,1.000000 498.531342,0.999992 
z"/>
<path fill="#000000" opacity="1.000000" stroke="none" 
	d="
M1081.000000,499.531311 
	C1080.333374,499.029297 1079.215332,498.122803 1079.066772,497.078430 
	C1076.327026,477.805389 1073.879272,458.489624 1071.011230,439.236298 
	C1067.262939,414.074585 1060.495728,389.622620 1051.902832,365.744781 
	C1045.892090,349.041931 1038.919067,332.671844 1031.997559,316.313141 
	C1019.299011,286.300323 1002.429993,258.585358 983.901123,231.911682 
	C975.040527,219.156052 965.538391,206.742554 955.307983,195.066864 
	C940.952087,178.682983 926.163818,162.601089 910.580322,147.394501 
	C898.580261,135.684692 885.609619,124.789627 872.103394,114.845909 
	C852.408020,100.345459 832.372131,86.159119 811.508667,73.433769 
	C788.924805,59.659088 765.086304,47.904739 740.057983,39.083954 
	C717.135681,31.005421 694.031311,23.362284 670.721313,16.498209 
	C658.563049,12.917957 645.812439,11.297481 633.284912,9.038343 
	C622.935181,7.171933 612.536560,5.552987 602.126343,4.056321 
	C597.593872,3.404699 592.970032,3.413660 588.404175,2.957444 
	C586.698242,2.786994 585.039246,2.146563 583.679443,1.360214 
	C749.593933,1.000000 915.187805,1.000000 1081.000000,1.000000 
	C1081.000000,167.020828 1081.000000,333.041748 1081.000000,499.531311 
z"/>
<path fill="#FFFFFF" opacity="1.000000" stroke="none" 
	d="
M887.585938,910.612854 
	C871.150085,924.132812 855.486877,938.094421 838.757324,950.633301 
	C804.074402,976.628418 766.241211,997.161926 725.831848,1012.909912 
	C698.641907,1023.506104 670.874390,1032.375977 642.165222,1037.521851 
	C620.968262,1041.321411 599.487549,1043.749146 578.043457,1045.886719 
	C563.185913,1047.367798 548.157532,1048.088623 533.238098,1047.742188 
	C516.505554,1047.353516 499.705444,1046.149902 483.123962,1043.903809 
	C461.767883,1041.010986 440.354309,1037.772217 419.400696,1032.835449 
	C372.446625,1021.772827 328.168488,1003.590576 286.470734,979.283569 
	C259.242737,963.411438 233.740906,945.140442 209.853027,924.523926 
	C169.451309,889.655090 135.297104,849.506897 107.702477,803.908142 
	C78.429810,755.536377 57.393646,703.794861 45.765778,648.310608 
	C40.886921,625.030396 37.057728,601.650085 35.948341,577.869080 
	C35.290234,563.761780 33.926540,549.637268 34.197418,535.545837 
	C35.085476,489.348236 41.208416,443.867981 54.296783,399.418518 
	C64.543602,364.619202 78.156166,331.196045 95.466583,299.364838 
	C111.394600,270.075623 129.522125,242.135834 151.573837,217.025894 
	C165.066696,201.661789 178.824997,186.433319 193.540482,172.261658 
	C220.342712,146.449890 250.167023,124.445847 282.153809,105.367096 
	C316.067291,85.139114 351.872131,69.151360 389.519348,57.373798 
	C416.999878,48.776772 445.020905,42.302769 473.661530,39.033672 
	C489.643738,37.209431 505.706238,35.708847 521.771912,35.099430 
	C539.022644,34.445053 556.385925,34.045120 573.582825,35.232185 
	C612.120850,37.892372 650.000366,44.642250 687.089539,55.788433 
	C719.608948,65.561310 750.630249,78.817635 780.480530,94.826340 
	C809.881653,110.594131 837.820740,128.728577 862.992310,150.675232 
	C880.032349,165.532089 896.726562,180.911301 912.372375,197.211624 
	C935.221130,221.016251 954.876221,247.457611 972.276550,275.541901 
	C992.887329,308.807953 1009.393738,344.021210 1021.765198,381.102478 
	C1030.453369,407.143646 1037.583862,433.688324 1040.935303,460.987640 
	C1043.622192,482.873322 1044.979248,504.919861 1047.096191,526.878662 
	C1049.102783,547.695496 1046.776611,568.341064 1045.127563,589.033386 
	C1041.832153,630.387207 1032.439331,670.421936 1018.928345,709.520142 
	C1006.698730,744.910156 990.276672,778.326416 970.361267,810.038879 
	C954.218323,835.744324 936.048035,859.903687 915.368835,882.125488 
	C906.413757,891.748535 897.052490,900.993530 887.585938,910.612854 
M368.619781,322.058411 
	C365.657227,322.365540 362.701416,322.817719 359.730988,322.956390 
	C339.778534,323.887726 320.243042,327.305054 301.197479,333.229401 
	C269.004639,343.243347 241.237686,360.246826 219.040436,385.938812 
	C189.470886,420.163849 177.359375,461.095612 174.246735,505.083832 
	C173.078430,521.594666 173.860672,538.366455 175.229599,554.897095 
	C176.440765,569.522583 178.877014,584.171814 182.232422,598.467896 
	C188.791183,626.412170 200.885254,651.846069 220.058060,673.548035 
	C245.859879,702.753540 278.512695,719.702454 316.469788,726.934814 
	C325.223297,728.602722 334.080170,730.680298 342.912476,730.794739 
	C364.695923,731.077026 386.501984,730.605957 408.280273,729.878723 
	C419.179810,729.514771 430.144897,728.563477 440.894073,726.764709 
	C465.117065,722.711304 489.216797,717.966736 512.600952,710.160950 
	C520.611511,707.486877 520.716675,707.714233 520.717773,699.289307 
	C520.726135,632.796387 520.726685,566.303406 520.703125,499.810455 
	C520.702332,497.685760 520.415588,495.561218 520.249695,493.264465 
	C462.973267,493.264465 406.092743,493.264465 349.078094,493.264465 
	C348.923981,494.613098 348.716705,495.584564 348.715942,496.556152 
	C348.696625,521.553467 348.764587,546.551208 348.625763,571.547729 
	C348.605164,575.259949 350.102234,575.944336 353.377808,575.926086 
	C373.375061,575.814941 393.373260,575.871094 413.371124,575.871399 
	C415.314789,575.871460 417.258453,575.871399 418.873779,575.871399 
	C419.352783,576.811157 419.628143,577.099792 419.629211,577.389465 
	C419.701080,596.716370 419.819031,616.043945 419.639435,635.368774 
	C419.628265,636.573364 417.425171,638.542786 415.978790,638.829590 
	C398.047333,642.385498 380.021545,644.303345 361.699799,641.992188 
	C348.782410,640.362915 336.745300,636.492371 325.852020,629.362183 
	C303.334198,614.623169 293.287354,592.052856 288.205536,566.987061 
	C284.173981,547.101746 284.119965,526.867676 285.951324,506.602386 
	C287.280182,491.897064 290.667206,477.752228 296.502045,464.319366 
	C306.263428,441.847015 321.890015,424.941956 345.409546,416.480743 
	C369.091827,407.960907 393.434662,409.062073 417.785095,412.558441 
	C437.501038,415.389404 456.463226,420.962891 474.491058,429.552277 
	C475.645386,430.102234 476.924744,430.389709 478.431671,430.895142 
	C489.770050,402.792084 501.006439,374.941864 512.222046,347.143219 
	C511.160370,346.521942 510.755646,346.224670 510.306305,346.030762 
	C478.587585,332.342194 445.195099,325.687592 410.959900,323.079071 
	C397.224396,322.032593 383.385132,322.348083 368.619781,322.058411 
M751.347900,327.948334 
	C701.653870,327.948334 651.959900,327.948334 602.318970,327.948334 
	C602.318970,460.909210 602.318970,593.276672 602.318970,725.579285 
	C638.139832,725.579285 673.532593,725.579285 709.490845,725.579285 
	C709.490845,677.244263 709.490845,629.327087 709.490845,581.000000 
	C717.197510,581.000000 724.348511,581.199646 731.480652,580.918701 
	C735.238220,580.770691 737.365906,581.866638 739.347229,585.289185 
	C765.714355,630.834045 792.308960,676.247070 818.708740,721.773132 
	C820.528625,724.911499 822.427307,726.102173 826.090515,726.088074 
	C863.416626,725.944031 900.743652,726.002380 938.070374,725.990662 
	C939.488342,725.990234 940.906311,725.853455 943.184631,725.735718 
	C904.365662,667.724426 865.977905,610.357605 827.380371,552.677307 
	C832.018799,549.668823 836.232910,547.039490 840.341125,544.253906 
	C864.690979,527.743103 882.831177,506.470551 890.624451,477.542053 
	C894.300903,463.895142 895.064209,449.846466 893.872314,435.835358 
	C893.048035,426.145966 892.014343,416.271942 889.339966,406.979492 
	C880.467163,376.148804 859.319214,356.342316 830.484253,343.831207 
	C805.528748,333.003357 778.962158,330.320984 751.347900,327.948334 
z"/>
<path fill="#FFDE59" opacity="1.000000" stroke="none" 
	d="
M369.106445,322.051025 
	C383.385132,322.348083 397.224396,322.032593 410.959900,323.079071 
	C445.195099,325.687592 478.587585,332.342194 510.306305,346.030762 
	C510.755646,346.224670 511.160370,346.521942 512.222046,347.143219 
	C501.006439,374.941864 489.770050,402.792084 478.431671,430.895142 
	C476.924744,430.389709 475.645386,430.102234 474.491058,429.552277 
	C456.463226,420.962891 437.501038,415.389404 417.785095,412.558441 
	C393.434662,409.062073 369.091827,407.960907 345.409546,416.480743 
	C321.890015,424.941956 306.263428,441.847015 296.502045,464.319366 
	C290.667206,477.752228 287.280182,491.897064 285.951324,506.602386 
	C284.119965,526.867676 284.173981,547.101746 288.205536,566.987061 
	C293.287354,592.052856 303.334198,614.623169 325.852020,629.362183 
	C336.745300,636.492371 348.782410,640.362915 361.699799,641.992188 
	C380.021545,644.303345 398.047333,642.385498 415.978790,638.829590 
	C417.425171,638.542786 419.628265,636.573364 419.639435,635.368774 
	C419.819031,616.043945 419.701080,596.716370 419.629211,577.389465 
	C419.628143,577.099792 419.352783,576.811157 418.873779,575.871399 
	C417.258453,575.871399 415.314789,575.871460 413.371124,575.871399 
	C393.373260,575.871094 373.375061,575.814941 353.377808,575.926086 
	C350.102234,575.944336 348.605164,575.259949 348.625763,571.547729 
	C348.764587,546.551208 348.696625,521.553467 348.715942,496.556152 
	C348.716705,495.584564 348.923981,494.613098 349.078094,493.264465 
	C406.092743,493.264465 462.973267,493.264465 520.249695,493.264465 
	C520.415588,495.561218 520.702332,497.685760 520.703125,499.810455 
	C520.726685,566.303406 520.726135,632.796387 520.717773,699.289307 
	C520.716675,707.714233 520.611511,707.486877 512.600952,710.160950 
	C489.216797,717.966736 465.117065,722.711304 440.894073,726.764709 
	C430.144897,728.563477 419.179810,729.514771 408.280273,729.878723 
	C386.501984,730.605957 364.695923,731.077026 342.912476,730.794739 
	C334.080170,730.680298 325.223297,728.602722 316.469788,726.934814 
	C278.512695,719.702454 245.859879,702.753540 220.058060,673.548035 
	C200.885254,651.846069 188.791183,626.412170 182.232422,598.467896 
	C178.877014,584.171814 176.440765,569.522583 175.229599,554.897095 
	C173.860672,538.366455 173.078430,521.594666 174.246735,505.083832 
	C177.359375,461.095612 189.470886,420.163849 219.040436,385.938812 
	C241.237686,360.246826 269.004639,343.243347 301.197479,333.229401 
	C320.243042,327.305054 339.778534,323.887726 359.730988,322.956390 
	C362.701416,322.817719 365.657227,322.365540 369.106445,322.051025 
z"/>
<path fill="#FFDE59" opacity="1.000000" stroke="none" 
	d="
M751.827332,327.965973 
	C778.962158,330.320984 805.528748,333.003357 830.484253,343.831207 
	C859.319214,356.342316 880.467163,376.148804 889.339966,406.979492 
	C892.014343,416.271942 893.048035,426.145966 893.872314,435.835358 
	C895.064209,449.846466 894.300903,463.895142 890.624451,477.542053 
	C882.831177,506.470551 864.690979,527.743103 840.341125,544.253906 
	C836.232910,547.039490 832.018799,549.668823 827.380371,552.677307 
	C865.977905,610.357605 904.365662,667.724426 943.184631,725.735718 
	C940.906311,725.853455 939.488342,725.990234 938.070374,725.990662 
	C900.743652,726.002380 863.416626,725.944031 826.090515,726.088074 
	C822.427307,726.102173 820.528625,724.911499 818.708740,721.773132 
	C792.308960,676.247070 765.714355,630.834045 739.347229,585.289185 
	C737.365906,581.866638 735.238220,580.770691 731.480652,580.918701 
	C724.348511,581.199646 717.197510,581.000000 709.490845,581.000000 
	C709.490845,629.327087 709.490845,677.244263 709.490845,725.579285 
	C673.532593,725.579285 638.139832,725.579285 602.318970,725.579285 
	C602.318970,593.276672 602.318970,460.909210 602.318970,327.948334 
	C651.959900,327.948334 701.653870,327.948334 751.827332,327.965973 
M785.198242,460.611481 
	C789.143005,434.474976 779.179626,416.658295 753.640808,411.622864 
	C743.343384,409.592499 732.608948,409.721802 722.062134,409.042328 
	C717.986206,408.779724 713.879211,408.999451 709.618408,408.999451 
	C709.618408,439.636841 709.618408,469.527802 709.618408,499.881104 
	C725.301880,499.878082 740.712158,501.254639 755.743042,496.369141 
	C772.811829,490.821228 782.544067,479.197662 785.198242,460.611481 
z"/>
<path fill="#FFFFFF" opacity="1.000000" stroke="none" 
	d="
M785.144165,461.046448 
	C782.544067,479.197662 772.811829,490.821228 755.743042,496.369141 
	C740.712158,501.254639 725.301880,499.878082 709.618408,499.881104 
	C709.618408,469.527802 709.618408,439.636841 709.618408,408.999451 
	C713.879211,408.999451 717.986206,408.779724 722.062134,409.042328 
	C732.608948,409.721802 743.343384,409.592499 753.640808,411.622864 
	C779.179626,416.658295 789.143005,434.474976 785.144165,461.046448 
z"/>
</svg>