<?xml version="1.0" encoding="UTF-8"?>
<!DOCTYPE svg PUBLIC "-//W3C//DTD SVG 1.1//EN" "http://www.w3.org/Graphics/SVG/1.1/DTD/svg11.dtd">
<!-- Creator: CorelDRAW -->
<svg xmlns="http://www.w3.org/2000/svg" xml:space="preserve" width="2048px" height="2048px" style="shape-rendering:geometricPrecision; text-rendering:geometricPrecision; image-rendering:optimizeQuality; fill-rule:evenodd; clip-rule:evenodd"
viewBox="0 0 2048 2048"
 xmlns:xlink="http://www.w3.org/1999/xlink">
 <defs>
  <style type="text/css">
   <![CDATA[
    .fil2 {fill:none}
    .fil16 {fill:black}
    .fil8 {fill:#00C853}
    .fil4 {fill:#212121}
    .fil9 {fill:#353E45}
    .fil5 {fill:#424242}
    .fil14 {fill:#43A047}
    .fil6 {fill:#454C54}
    .fil7 {fill:#4FC3F7}
    .fil15 {fill:#55ABDB}
    .fil13 {fill:#616161}
    .fil12 {fill:#757575}
    .fil1 {fill:#8E24AA}
    .fil0 {fill:#BA68C8}
    .fil10 {fill:#E6E6E6}
    .fil11 {fill:#BDBDBD;fill-rule:nonzero}
    .fil3 {fill:#E6E6E6;fill-rule:nonzero}
   ]]>
  </style>
   <clipPath id="id0">
    <path d="M1024 0c565.541,0 1024,458.459 1024,1024 0,565.541 -458.459,1024 -1024,1024 -565.541,0 -1024,-458.459 -1024,-1024 0,-565.541 458.459,-1024 1024,-1024z"/>
   </clipPath>
 </defs>
 <g id="Layer_x0020_1">
  <metadata id="CorelCorpID_0Corel-Layer"/>
  <path class="fil0" d="M1024 0c565.541,0 1024,458.459 1024,1024 0,565.541 -458.459,1024 -1024,1024 -565.541,0 -1024,-458.459 -1024,-1024 0,-565.541 458.459,-1024 1024,-1024z"/>
  <g style="clip-path:url(#id0)">
   <g id="_308717128">
    <g>
     <polygon id="_3039163761" class="fil1" points="1564.93,573.811 2700.81,1709.69 2701.62,1710.77 2702.32,1711.93 2702.91,1713.16 2703.39,1714.44 2703.73,1715.79 2703.95,1717.18 2704.02,1718.6 2704.02,1974.99 2703.95,1976.42 2703.73,1977.81 2703.39,1979.15 2702.91,1980.44 2702.32,1981.67 2701.61,1982.82 2700.8,1983.91 2699.9,1984.9 2698.9,1985.81 2697.82,1986.62 2696.66,1987.33 2695.43,1987.92 2694.15,1988.39 2692.8,1988.74 2691.42,1988.96 2689.99,1989.03 2493.79,1989.03 1357.9,853.146 1554.11,853.146 1555.53,853.073 1556.92,852.859 1558.26,852.512 1559.55,852.038 1560.78,851.444 1561.94,850.739 1563.02,849.929 1564.02,849.021 1564.92,848.023 1565.73,846.941 1566.44,845.785 1567.03,844.559 1567.51,843.27 1567.85,841.928 1568.07,840.54 1568.14,839.111 1568.14,582.722 1568.07,581.293 1567.85,579.904 1567.51,578.562 1567.03,577.275 1566.44,576.049 1565.74,574.891 "/>
     <polygon id="_303916616" class="fil1" points="952.001,492.933 2087.88,1628.82 2088.81,1629.84 2089.64,1630.95 2090.36,1632.13 2090.97,1633.39 2091.46,1634.71 2091.81,1636.08 2092.03,1637.5 2092.1,1638.97 2092.1,1795.05 956.224,659.169 956.224,503.084 956.149,501.62 955.931,500.198 955.574,498.824 955.09,497.504 954.481,496.249 953.76,495.063 952.931,493.955 "/>
     <polygon id="_303917432" class="fil1" points="980.224,659.169 2116.1,1795.05 2116.1,1819.05 980.224,683.169 "/>
     <polygon id="_303916976" class="fil1" points="980.224,683.169 2116.1,1819.05 2092.1,1819.05 956.224,683.169 "/>
     <polygon id="_303917120" class="fil1" points="956.224,683.169 2092.1,1819.05 2092.1,1901.59 2092.03,1903.05 2091.81,1904.47 2091.46,1905.85 2090.97,1907.17 2090.36,1908.42 2089.64,1909.61 2088.81,1910.72 2087.88,1911.74 2086.86,1912.67 2085.75,1913.5 2084.56,1914.22 2083.31,1914.83 2081.99,1915.32 2080.61,1915.67 2079.19,1915.89 2077.73,1915.97 1876.76,1915.97 740.877,780.083 941.847,780.083 943.311,780.009 944.733,779.789 946.107,779.434 947.427,778.948 948.682,778.34 949.868,777.617 950.976,776.788 951.998,775.857 952.928,774.836 953.757,773.728 954.48,772.542 955.089,771.286 955.574,769.967 955.929,768.592 956.149,767.17 956.224,765.707 "/>
     <polygon id="_303917312" class="fil1" points="688.505,780.083 1824.39,1915.97 1623.42,1915.97 1621.95,1915.89 1620.53,1915.67 1619.16,1915.32 1617.84,1914.83 1616.58,1914.22 1615.39,1913.5 1614.29,1912.67 1613.27,1911.74 477.384,775.861 478.406,776.79 479.514,777.619 480.7,778.341 481.955,778.949 483.274,779.434 484.649,779.79 486.071,780.009 487.535,780.083 "/>
     <polygon id="_303917408" class="fil1" points="760.811,1427.46 1896.69,2563.34 1644.33,2563.34 1641.89,2563.09 1639.62,2562.38 1637.57,2561.26 1635.77,2559.78 499.888,1423.89 501.684,1425.38 503.743,1426.5 506.013,1427.21 508.446,1427.46 "/>
     <polygon id="_303917456" class="fil1" points="787.795,1427.46 1923.68,2563.34 1923.68,2611.85 787.795,1475.97 "/>
     <polygon id="_303917480" class="fil1" points="740.877,780.083 1876.76,1915.97 1876.76,1968.74 740.877,832.856 "/>
     <polygon id="_303917288" class="fil1" points="754.286,841.426 1890.17,1977.31 1810.98,1977.31 675.096,841.426 "/>
     <polygon id="_303916928" class="fil1" points="690.827,1531.12 1826.71,2667 1599.88,2667 464,1531.12 "/>
     <polygon id="_303918152" class="fil1" points="862.955,1531.12 1998.84,2667 1998.84,2679.01 1998.75,2680.66 1998.51,2682.26 1998.11,2683.81 1997.56,2685.29 1996.88,2686.7 1996.07,2688.03 1995.13,2689.28 1994.09,2690.43 1992.94,2691.47 1991.69,2692.41 1990.36,2693.22 1988.95,2693.9 1987.47,2694.44 1985.92,2694.85 1984.32,2695.09 1982.67,2695.17 1842.87,2695.17 1841.22,2695.09 1839.62,2694.85 1838.08,2694.44 1836.6,2693.9 1835.18,2693.22 1833.85,2692.41 1832.61,2691.47 696.725,1555.59 697.969,1556.52 699.302,1557.33 700.714,1558.02 702.197,1558.56 703.743,1558.96 705.343,1559.21 706.99,1559.29 846.793,1559.29 848.44,1559.21 850.04,1558.96 851.586,1558.56 853.068,1558.02 854.481,1557.33 855.813,1556.52 857.058,1555.59 858.207,1554.54 859.253,1553.4 860.186,1552.15 860.997,1550.82 861.68,1549.41 862.225,1547.92 862.626,1546.38 862.872,1544.78 862.955,1543.13 "/>
     <polygon id="_303917672" class="fil1" points="754.286,832.856 1890.17,1968.74 1890.17,1977.31 754.286,841.426 "/>
     <polygon id="_303917816" class="fil1" points="1076.22,659.169 2212.1,1795.05 2212.1,1819.05 1076.22,683.169 "/>
     <polygon id="_303918032" class="fil1" points="1076.22,683.169 2212.1,1819.05 2188.1,1819.05 1052.22,683.169 "/>
     <polygon id="_303917984" class="fil1" points="1028.22,659.169 2164.1,1795.05 2164.1,1819.05 1028.22,683.169 "/>
     <polygon id="_303917648" class="fil1" points="1028.22,683.169 2164.1,1819.05 2140.1,1819.05 1004.22,683.169 "/>
     <polygon id="_303918056" class="fil1" points="1048.72,996.95 2184.6,2132.83 2186.09,2134.63 2187.2,2136.69 2187.91,2138.96 2188.16,2141.39 2188.16,2551.22 2187.91,2553.65 2187.2,2555.92 2186.08,2557.98 2184.6,2559.77 2182.8,2561.26 2180.74,2562.38 2178.47,2563.09 2176.04,2563.34 1923.68,2563.34 787.795,1427.46 1040.16,1427.46 1042.59,1427.21 1044.86,1426.5 1046.92,1425.38 1048.72,1423.89 1050.2,1422.09 1051.32,1420.04 1052.03,1417.77 1052.28,1415.33 1052.28,1005.51 1052.03,1003.08 1051.32,1000.81 1050.2,998.747 "/>
     <polygon id="_303917936" class="fil1" points="857.059,1479.67 1992.94,2615.55 1994.09,2616.6 1995.13,2617.75 1996.07,2618.99 1996.88,2620.33 1997.56,2621.74 1998.11,2623.22 1998.51,2624.77 1998.75,2626.37 1998.84,2628.01 1998.84,2640.02 862.955,1504.14 862.955,1492.13 862.872,1490.48 862.626,1488.88 862.225,1487.34 861.68,1485.86 860.997,1484.44 860.186,1483.11 859.253,1481.87 858.209,1480.72 "/>
     <polygon id="_303918296" class="fil1" points="1084.61,1531.12 2220.49,2667 1998.84,2667 862.955,1531.12 "/>
     <polygon id="_303918392" class="fil1" points="1084.61,1504.14 2220.49,2640.02 2220.49,2667 1084.61,1531.12 "/>
     <polygon id="_303917768" class="fil1" points="1306.78,853.146 2442.66,1989.03 2246.46,1989.03 2245.03,1988.96 2243.64,1988.74 2242.3,1988.39 2241.01,1987.92 2239.78,1987.33 2238.63,1986.62 2237.54,1985.81 2236.55,1984.91 1100.67,849.023 1101.66,849.931 1102.75,850.742 1103.9,851.446 1105.13,852.038 1106.42,852.512 1107.76,852.859 1109.15,853.073 1110.58,853.146 "/>
     <polygon id="_303918704" class="fil1" points="1344.34,1039.05 2480.22,2174.93 2456.22,2174.93 1320.34,1039.05 "/>
     <polygon id="_303918584" class="fil1" points="1344.34,1063.05 2480.22,2198.93 2480.22,2222.93 1344.34,1087.05 "/>
     <polygon id="_303918800" class="fil1" points="1344.34,1087.05 2480.22,2222.93 2456.22,2222.93 1320.34,1087.05 "/>
     <polygon id="_303919136" class="fil1" points="1344.34,1111.05 2480.22,2246.93 2480.22,2250.69 1344.34,1114.8 "/>
     <polygon id="_303918992" class="fil1" points="1344.34,967.052 2480.22,2102.93 2480.22,2126.93 1344.34,991.052 "/>
     <polygon id="_303918896" class="fil1" points="1306.87,1416.43 2442.75,2552.31 2234.71,2552.31 2233.19,2552.23 2231.72,2552.01 2230.3,2551.64 2228.93,2551.14 2227.63,2550.51 2226.4,2549.76 2225.26,2548.9 2224.2,2547.94 1088.32,1412.06 1089.38,1413.02 1090.52,1413.88 1091.75,1414.62 1093.05,1415.25 1094.42,1415.76 1095.84,1416.12 1097.31,1416.35 1098.83,1416.43 "/>
     <polygon id="_303918440" class="fil1" points="1361.08,1416.43 2496.96,2552.31 2496.96,2606.94 1361.08,1471.06 "/>
     <polygon id="_303919016" class="fil1" points="1374.96,1479.93 2510.84,2615.81 2428.87,2615.81 1292.99,1479.93 "/>
     <polygon id="_303918464" class="fil1" points="1374.96,1471.06 2510.84,2606.94 2510.84,2615.81 1374.96,1479.93 "/>
     <polygon id="_303918512" class="fil1" points="1344.34,991.052 2480.22,2126.93 2456.22,2126.93 1320.34,991.052 "/>
     <polygon id="_303919592" class="fil1" points="1357.9,853.146 2493.79,1989.03 2493.79,2040.55 1357.9,904.666 "/>
     <polygon id="_303919304" class="fil1" points="1371,913.033 2506.88,2048.92 2429.57,2048.92 1293.69,913.033 "/>
     <polygon id="_303919760" class="fil1" points="1344.34,919.052 2480.22,2054.93 2480.22,2078.93 1344.34,943.052 "/>
     <polygon id="_303919736" class="fil1" points="1371,904.666 2506.88,2040.55 2506.88,2048.92 1371,913.033 "/>
     <polygon id="_303919472" class="fil1" points="1344.34,943.052 2480.22,2078.93 2456.22,2078.93 1320.34,943.052 "/>
     <polygon id="_303919448" class="fil1" points="1344.34,1015.05 2480.22,2150.93 2480.22,2174.93 1344.34,1039.05 "/>
     <polygon id="_303919904" class="fil1" points="1579.63,1119.18 2715.51,2255.06 2716.47,2256.12 2717.33,2257.27 2718.08,2258.49 2718.71,2259.79 2719.21,2261.16 2719.58,2262.58 2719.8,2264.05 2719.88,2265.57 2719.88,2537.43 2719.8,2538.94 2719.58,2540.41 2719.21,2541.84 2718.71,2543.2 2718.08,2544.5 2717.33,2545.73 2716.47,2546.88 2715.51,2547.94 2714.45,2548.9 2713.3,2549.76 2712.08,2550.51 2710.77,2551.13 2709.41,2551.64 2707.99,2552.01 2706.51,2552.23 2705,2552.31 2496.96,2552.31 1361.08,1416.43 1569.12,1416.43 1570.63,1416.35 1572.11,1416.12 1573.53,1415.76 1574.89,1415.25 1576.19,1414.62 1577.42,1413.88 1578.57,1413.02 1579.63,1412.05 1580.59,1410.99 1581.45,1409.85 1582.2,1408.62 1582.82,1407.32 1583.33,1405.96 1583.7,1404.53 1583.92,1403.06 1584,1401.55 1584,1129.69 1583.92,1128.17 1583.7,1126.7 1583.33,1125.27 1582.83,1123.91 1582.2,1122.61 1581.45,1121.38 1580.59,1120.24 "/>
    </g>
    <path id="_308717008" class="fil1" d="M1110.58 568.687l443.529 0c7.71969,0 14.0351,6.32126 14.0351,14.0351l0 256.389c0,7.7126 -6.32126,14.0351 -14.0351,14.0351l-196.2 0 0 51.5197 13.0902 0 0 8.36694 -77.3091 0 0 -8.36694 13.0902 0 0 -51.5197 -196.2 0c-7.71379,0 -14.0362,-6.31536 -14.0362,-14.0351l0 -256.389c0,-7.71969 6.31536,-14.0351 14.0362,-14.0351zm-602.13 424.7l531.715 0c6.66615,0 12.1193,5.4626 12.1193,12.1217l0 409.825c0,6.65788 -5.46142,12.1217 -12.1193,12.1217l-252.366 0 0 48.5138 58.9985 0c8.89016,0 16.1622,7.27205 16.1622,16.161l0 12.0071 221.651 0 0 26.9847 -221.651 0 0 12.0083c0,8.88898 -7.27323,16.1622 -16.1622,16.1622l-139.804 0c-8.88898,0 -16.1622,-7.27323 -16.1622,-16.1622l0 -12.0083 -226.827 0 0 -26.9847 226.827 0 0 -12.0071c0,-8.88898 7.27205,-16.161 16.1622,-16.161l53.8217 0 0 -48.5138 -252.365 0c-6.65906,0 -12.1217,-5.45433 -12.1217,-12.1217l0 -409.825c0,-6.66733 5.45433,-12.1217 12.1217,-12.1217zm447.778 -490.303l0 156.085 24 0 0 24 -24 0 0 82.5379c0,7.9004 -6.47599,14.3764 -14.3764,14.3764l-200.971 0 0 52.7729 13.4091 0 0 8.57009 -79.1894 0 0 -8.57009 13.4091 0 0 -52.7729 -200.971 0c-7.9004,0 -14.3764,-6.4689 -14.3764,-14.3764l0 -262.623c0,-7.90631 6.4689,-14.3764 14.3764,-14.3764l454.313 0c7.90749,0 14.3764,6.47599 14.3764,14.3764zm388.118 511.968l0 24 -24 0 0 -24 24 0zm-24 48l24 0 0 24 -24 0 0 -24zm-221.515 51.7512l221.515 0 0 -3.75118 24 0 0 3.75118 224.777 0c8.18623,0 14.8819,6.70394 14.8819,14.8819l0 271.86c0,8.17796 -6.70276,14.8819 -14.8819,14.8819l-208.038 0 0 54.6284 13.8803 0 0 8.87127 -81.9745 0 0 -8.87127 13.8803 0 0 -54.6284 -208.04 0c-8.17914,0 -14.8819,-6.69686 -14.8819,-14.8819l0 -271.86c0,-8.18505 6.69567,-14.8819 14.8819,-14.8819zm245.515 -147.751l0 24 -24 0 0 -24 24 0zm0 -48l0 24 -24 0 0 -24 24 0zm-268.118 -259.883l0 24 -24 0 0 -24 24 0zm-48 0l0 24 -24 0 0 -24 24 0z"/>
   </g>
  </g>
  <path class="fil2" d="M1024 0c565.541,0 1024,458.459 1024,1024 0,565.541 -458.459,1024 -1024,1024 -565.541,0 -1024,-458.459 -1024,-1024 0,-565.541 458.459,-1024 1024,-1024z"/>
  <path class="fil3" d="M980.224 659.169l0 24 -24 0 0 -24 24 0zm364.118 470.516l0 -18.6331 -24 0 0 18.6331 24 0zm0 -42.6331l-24 0 0 -24 24 0 0 24zm0 -48l-24 0 0 -24 24 0 0 24zm0 -48l-24 0 0 -24 24 0 0 24zm0 -48l-24 0 0 -24 24 0 0 24zm0 -48l-24 0 0 -24 24 0 0 24zm0 -48l-24 0 0 -24 24 0 0 24zm0 -48l-24 0 0 -24 24 0 0 24zm0 -48l-24 0 0 -24 24 0 0 24zm0 -48l-24 0 0 -24 24 0 0 24zm-28.1173 -43.8827l0 24 -24 0 0 -24 24 0zm-48 0l0 24 -24 0 0 -24 24 0zm-48 0l0 24 -24 0 0 -24 24 0zm-48 0l0 24 -24 0 0 -24 24 0zm-48 0l0 24 -24 0 0 -24 24 0zm-48 0l0 24 -24 0 0 -24 24 0zm-48 0l0 24 -24 0 0 -24 24 0z"/>
  <rect class="fil4" x="1306.87" y="1410.27" width="54.213" height="63.5001"/>
  <rect class="fil4" x="1292.99" y="1471.06" width="81.9746" height="8.87106"/>
  <path class="fil5" d="M1098.83 1114.8l470.292 0c8.18623,0 14.8819,6.70394 14.8819,14.8819l0 271.859c0,8.17914 -6.70276,14.8831 -14.8819,14.8831l-470.292 0c-8.17796,0 -14.8819,-6.69686 -14.8819,-14.8831l0 -271.859c0,-8.18505 6.69686,-14.8819 14.8819,-14.8819z"/>
  <circle class="fil6" cx="1309.26" cy="1396.54" r="7.19251"/>
  <circle class="fil7" cx="1309.26" cy="1396.54" r="5.23622"/>
  <circle class="fil6" cx="1333.97" cy="1396.54" r="7.19251"/>
  <circle class="fil8" cx="1333.97" cy="1396.54" r="5.23622"/>
  <circle class="fil9" cx="1358.68" cy="1396.54" r="7.19251"/>
  <path class="fil10" d="M1113.68 1129.69l440.576 0c7.66772,0 13.9417,5.66811 13.9417,12.5823l0 223.755c0,6.91418 -6.28111,12.5811 -13.9417,12.5811l-440.576 0c-7.66182,0 -13.9417,-5.66103 -13.9417,-12.5811l0 -223.755c0,-6.92008 6.27284,-12.5823 13.9417,-12.5823z"/>
  <rect class="fil4" x="1306.78" y="847.342" width="51.128" height="59.8866"/>
  <rect class="fil4" x="1293.69" y="904.667" width="77.3098" height="8.36625"/>
  <path class="fil5" d="M1110.58 568.687l443.529 0c7.71969,0 14.0351,6.32126 14.0351,14.0351l0 256.389c0,7.7126 -6.32245,14.0351 -14.0351,14.0351l-443.529 0c-7.71379,0 -14.0362,-6.31536 -14.0362,-14.0351l0 -256.389c0,-7.71969 6.31654,-14.0351 14.0362,-14.0351z"/>
  <circle class="fil6" cx="1309.04" cy="834.394" r="6.78321"/>
  <circle class="fil7" cx="1309.04" cy="834.394" r="4.93825"/>
  <circle class="fil6" cx="1332.34" cy="834.394" r="6.78321"/>
  <circle class="fil8" cx="1332.34" cy="834.394" r="4.93825"/>
  <circle class="fil9" cx="1355.64" cy="834.394" r="6.78321"/>
  <path class="fil10" d="M1124.59 582.722l415.505 0c7.2319,0 13.148,5.34449 13.148,11.8654l0 211.023c0,6.51969 -5.92323,11.8654 -13.148,11.8654l-415.505 0c-7.22481,0 -13.148,-5.33977 -13.148,-11.8654l0 -211.023c0,-6.52678 5.91615,-11.8654 13.148,-11.8654z"/>
  <rect class="fil4" x="688.506" y="774.138" width="52.3711" height="61.3426"/>
  <rect class="fil4" x="675.097" y="832.856" width="79.1894" height="8.56965"/>
  <path class="fil5" d="M487.535 488.707l454.313 0c7.90749,0 14.3764,6.47599 14.3764,14.3764l0 262.623c0,7.9004 -6.47599,14.3764 -14.3764,14.3764l-454.313 0c-7.9004,0 -14.3764,-6.4689 -14.3764,-14.3764l0 -262.623c0,-7.90631 6.4689,-14.3764 14.3764,-14.3764z"/>
  <circle class="fil6" cx="690.82" cy="760.875" r="6.94813"/>
  <circle class="fil7" cx="690.82" cy="760.875" r="5.05831"/>
  <circle class="fil6" cx="714.691" cy="760.875" r="6.94813"/>
  <circle class="fil8" cx="714.691" cy="760.875" r="5.05831"/>
  <circle class="fil9" cx="738.561" cy="760.875" r="6.94813"/>
  <path class="fil10" d="M501.887 503.084l425.607 0c7.40788,0 13.4681,5.47559 13.4681,12.1547l0 216.153c0,6.67914 -6.06733,12.1547 -13.4681,12.1547l-425.607 0c-7.40079,0 -13.4681,-5.46969 -13.4681,-12.1547l0 -216.153c0,-6.68504 6.06024,-12.1547 13.4681,-12.1547z"/>
  <polygon class="fil11" points="787.795,1404.95 787.795,1489.46 760.811,1489.46 760.811,1404.95 "/>
  <path class="fil11" d="M464 1504.14l240.319 0 0 26.9835 -240.319 0 0 -26.9835zm381.167 0l239.439 0 0 26.9835 -239.439 0 0 -26.9835z"/>
  <path class="fil12" d="M706.988 1475.97l139.805 0c8.88898,0 16.161,7.27323 16.161,16.161l0 51c0,8.88898 -7.27205,16.1622 -16.161,16.1622l-139.805 0c-8.8878,0 -16.161,-7.27323 -16.161,-16.1622l0 -51c0,-8.88898 7.27205,-16.161 16.161,-16.161z"/>
  <path class="fil13" d="M508.446 993.387l531.714 0c6.66733,0 12.1217,5.4626 12.1217,12.1217l0 409.825c0,6.65906 -5.4626,12.1205 -12.1217,12.1205l-531.714 0c-6.65906,0 -12.1217,-5.45315 -12.1217,-12.1205l0 -409.825c0,-6.66733 5.45433,-12.1217 12.1217,-12.1217z"/>
  <path class="fil4" d="M524.51 1039.91l499.585 0c5.85945,0 10.6524,4.80355 10.6524,10.6512l0 30.4193c0,5.84882 -4.80355,10.6512 -10.6524,10.6512l-499.585 0c-5.84882,0 -10.6524,-4.79292 -10.6524,-10.6512l0 -30.4193c0,-5.85827 4.79292,-10.6512 10.6524,-10.6512z"/>
  <circle class="fil14" cx="539.932" cy="1066.61" r="9.69074"/>
  <circle class="fil14" cx="565.145" cy="1066.61" r="9.69074"/>
  <circle class="fil14" cx="590.357" cy="1066.61" r="9.69074"/>
  <circle class="fil15" cx="983.754" cy="1066.61" r="9.69074"/>
  <circle class="fil15" cx="1008.97" cy="1066.61" r="9.69074"/>
  <rect class="fil5" x="612.687" y="1052.83" width="323.233" height="25.8588"/>
  <rect class="fil16" x="629.88" y="1060.28" width="11.1654" height="11.1654"/>
  <rect class="fil16" x="648.392" y="1060.28" width="11.1654" height="11.1654"/>
  <rect class="fil16" x="666.904" y="1060.28" width="11.1654" height="11.1654"/>
  <rect class="fil16" x="685.416" y="1060.28" width="11.1654" height="11.1654"/>
  <rect class="fil16" x="703.928" y="1060.28" width="11.1654" height="11.1654"/>
  <rect class="fil16" x="722.44" y="1060.28" width="11.1654" height="11.1654"/>
  <rect class="fil16" x="740.952" y="1060.28" width="11.1654" height="11.1654"/>
  <rect class="fil16" x="759.464" y="1060.28" width="11.1654" height="11.1654"/>
  <rect class="fil16" x="777.976" y="1060.28" width="11.1654" height="11.1654"/>
  <rect class="fil16" x="796.488" y="1060.28" width="11.1654" height="11.1654"/>
  <rect class="fil16" x="815" y="1060.28" width="11.1654" height="11.1654"/>
  <rect class="fil16" x="833.513" y="1060.28" width="11.1654" height="11.1654"/>
  <rect class="fil16" x="852.025" y="1060.28" width="11.1654" height="11.1654"/>
  <rect class="fil16" x="870.537" y="1060.28" width="11.1654" height="11.1654"/>
  <rect class="fil16" x="889.049" y="1060.28" width="11.1654" height="11.1654"/>
  <rect class="fil16" x="907.561" y="1060.28" width="11.1654" height="11.1654"/>
  <path class="fil4" d="M524.51 1104.55l499.585 0c5.85945,0 10.6524,4.80355 10.6524,10.6524l0 30.4193c0,5.84764 -4.80355,10.6512 -10.6524,10.6512l-499.585 0c-5.84882,0 -10.6524,-4.79292 -10.6524,-10.6512l0 -30.4193c0,-5.85945 4.79292,-10.6524 10.6524,-10.6524z"/>
  <circle class="fil14" cx="539.932" cy="1131.25" r="9.69074"/>
  <circle class="fil14" cx="565.145" cy="1131.25" r="9.69074"/>
  <circle class="fil14" cx="590.357" cy="1131.25" r="9.69074"/>
  <circle class="fil15" cx="983.754" cy="1131.25" r="9.69074"/>
  <circle class="fil15" cx="1008.97" cy="1131.25" r="9.69074"/>
  <rect class="fil5" x="612.687" y="1117.48" width="323.233" height="25.8588"/>
  <rect class="fil16" x="629.88" y="1124.93" width="11.1654" height="11.1654"/>
  <rect class="fil16" x="648.392" y="1124.93" width="11.1654" height="11.1654"/>
  <rect class="fil16" x="666.904" y="1124.93" width="11.1654" height="11.1654"/>
  <rect class="fil16" x="685.416" y="1124.93" width="11.1654" height="11.1654"/>
  <rect class="fil16" x="703.928" y="1124.93" width="11.1654" height="11.1654"/>
  <rect class="fil16" x="722.44" y="1124.93" width="11.1654" height="11.1654"/>
  <rect class="fil16" x="740.952" y="1124.93" width="11.1654" height="11.1654"/>
  <rect class="fil16" x="759.464" y="1124.93" width="11.1654" height="11.1654"/>
  <rect class="fil16" x="777.976" y="1124.93" width="11.1654" height="11.1654"/>
  <rect class="fil16" x="796.488" y="1124.93" width="11.1654" height="11.1654"/>
  <rect class="fil16" x="815" y="1124.93" width="11.1654" height="11.1654"/>
  <rect class="fil16" x="833.513" y="1124.93" width="11.1654" height="11.1654"/>
  <rect class="fil16" x="852.025" y="1124.93" width="11.1654" height="11.1654"/>
  <rect class="fil16" x="870.537" y="1124.93" width="11.1654" height="11.1654"/>
  <rect class="fil16" x="889.049" y="1124.93" width="11.1654" height="11.1654"/>
  <rect class="fil16" x="907.561" y="1124.93" width="11.1654" height="11.1654"/>
  <path class="fil4" d="M524.51 1169.2l499.585 0c5.85945,0 10.6524,4.80355 10.6524,10.6512l0 30.4193c0,5.84882 -4.80355,10.6524 -10.6524,10.6524l-499.585 0c-5.84882,0 -10.6524,-4.79292 -10.6524,-10.6524l0 -30.4193c0,-5.85827 4.79292,-10.6512 10.6524,-10.6512z"/>
  <circle class="fil14" cx="539.932" cy="1195.89" r="9.69074"/>
  <circle class="fil14" cx="565.145" cy="1195.89" r="9.69074"/>
  <circle class="fil14" cx="590.357" cy="1195.89" r="9.69074"/>
  <circle class="fil15" cx="983.754" cy="1195.89" r="9.69074"/>
  <circle class="fil15" cx="1008.97" cy="1195.89" r="9.69074"/>
  <rect class="fil5" x="612.687" y="1182.12" width="323.233" height="25.8588"/>
  <rect class="fil16" x="629.88" y="1189.57" width="11.1654" height="11.1654"/>
  <rect class="fil16" x="648.392" y="1189.57" width="11.1654" height="11.1654"/>
  <rect class="fil16" x="666.904" y="1189.57" width="11.1654" height="11.1654"/>
  <rect class="fil16" x="685.416" y="1189.57" width="11.1654" height="11.1654"/>
  <rect class="fil16" x="703.928" y="1189.57" width="11.1654" height="11.1654"/>
  <rect class="fil16" x="722.44" y="1189.57" width="11.1654" height="11.1654"/>
  <rect class="fil16" x="740.952" y="1189.57" width="11.1654" height="11.1654"/>
  <rect class="fil16" x="759.464" y="1189.57" width="11.1654" height="11.1654"/>
  <rect class="fil16" x="777.976" y="1189.57" width="11.1654" height="11.1654"/>
  <rect class="fil16" x="796.488" y="1189.57" width="11.1654" height="11.1654"/>
  <rect class="fil16" x="815" y="1189.57" width="11.1654" height="11.1654"/>
  <rect class="fil16" x="833.513" y="1189.57" width="11.1654" height="11.1654"/>
  <rect class="fil16" x="852.025" y="1189.57" width="11.1654" height="11.1654"/>
  <rect class="fil16" x="870.537" y="1189.57" width="11.1654" height="11.1654"/>
  <rect class="fil16" x="889.049" y="1189.57" width="11.1654" height="11.1654"/>
  <rect class="fil16" x="907.561" y="1189.57" width="11.1654" height="11.1654"/>
  <path class="fil4" d="M524.51 1233.84l499.585 0c5.85945,0 10.6524,4.80355 10.6524,10.6524l0 30.4193c0,5.84764 -4.80355,10.6512 -10.6524,10.6512l-499.585 0c-5.84882,0 -10.6524,-4.79292 -10.6524,-10.6512l0 -30.4193c0,-5.85945 4.79292,-10.6524 10.6524,-10.6524z"/>
  <circle class="fil14" cx="539.932" cy="1260.54" r="9.69074"/>
  <circle class="fil14" cx="565.145" cy="1260.54" r="9.69074"/>
  <circle class="fil14" cx="590.357" cy="1260.54" r="9.69074"/>
  <circle class="fil15" cx="983.754" cy="1260.54" r="9.69074"/>
  <circle class="fil15" cx="1008.97" cy="1260.54" r="9.69074"/>
  <rect class="fil5" x="612.687" y="1246.77" width="323.233" height="25.8588"/>
  <rect class="fil16" x="629.88" y="1254.22" width="11.1654" height="11.1654"/>
  <rect class="fil16" x="648.392" y="1254.22" width="11.1654" height="11.1654"/>
  <rect class="fil16" x="666.904" y="1254.22" width="11.1654" height="11.1654"/>
  <rect class="fil16" x="685.416" y="1254.22" width="11.1654" height="11.1654"/>
  <rect class="fil16" x="703.928" y="1254.22" width="11.1654" height="11.1654"/>
  <rect class="fil16" x="722.44" y="1254.22" width="11.1654" height="11.1654"/>
  <rect class="fil16" x="740.952" y="1254.22" width="11.1654" height="11.1654"/>
  <rect class="fil16" x="759.464" y="1254.22" width="11.1654" height="11.1654"/>
  <rect class="fil16" x="777.976" y="1254.22" width="11.1654" height="11.1654"/>
  <rect class="fil16" x="796.488" y="1254.22" width="11.1654" height="11.1654"/>
  <rect class="fil16" x="815" y="1254.22" width="11.1654" height="11.1654"/>
  <rect class="fil16" x="833.513" y="1254.22" width="11.1654" height="11.1654"/>
  <rect class="fil16" x="852.025" y="1254.22" width="11.1654" height="11.1654"/>
  <rect class="fil16" x="870.537" y="1254.22" width="11.1654" height="11.1654"/>
  <rect class="fil16" x="889.049" y="1254.22" width="11.1654" height="11.1654"/>
  <rect class="fil16" x="907.561" y="1254.22" width="11.1654" height="11.1654"/>
  <path class="fil4" d="M524.51 1298.48l499.585 0c5.85945,0 10.6524,4.80355 10.6524,10.6512l0 30.4193c0,5.84882 -4.80355,10.6524 -10.6524,10.6524l-499.585 0c-5.84882,0 -10.6524,-4.79292 -10.6524,-10.6524l0 -30.4193c0,-5.85827 4.79292,-10.6512 10.6524,-10.6512z"/>
  <circle class="fil14" cx="539.932" cy="1325.18" r="9.69074"/>
  <circle class="fil14" cx="565.145" cy="1325.18" r="9.69074"/>
  <circle class="fil14" cx="590.357" cy="1325.18" r="9.69074"/>
  <circle class="fil15" cx="983.754" cy="1325.18" r="9.69074"/>
  <circle class="fil15" cx="1008.97" cy="1325.18" r="9.69074"/>
  <rect class="fil5" x="612.687" y="1311.41" width="323.233" height="25.8588"/>
  <rect class="fil16" x="629.88" y="1318.86" width="11.1654" height="11.1654"/>
  <rect class="fil16" x="648.392" y="1318.86" width="11.1654" height="11.1654"/>
  <rect class="fil16" x="666.904" y="1318.86" width="11.1654" height="11.1654"/>
  <rect class="fil16" x="685.416" y="1318.86" width="11.1654" height="11.1654"/>
  <rect class="fil16" x="703.928" y="1318.86" width="11.1654" height="11.1654"/>
  <rect class="fil16" x="722.44" y="1318.86" width="11.1654" height="11.1654"/>
  <rect class="fil16" x="740.952" y="1318.86" width="11.1654" height="11.1654"/>
  <rect class="fil16" x="759.464" y="1318.86" width="11.1654" height="11.1654"/>
  <rect class="fil16" x="777.976" y="1318.86" width="11.1654" height="11.1654"/>
  <rect class="fil16" x="796.488" y="1318.86" width="11.1654" height="11.1654"/>
  <rect class="fil16" x="815" y="1318.86" width="11.1654" height="11.1654"/>
  <rect class="fil16" x="833.513" y="1318.86" width="11.1654" height="11.1654"/>
  <rect class="fil16" x="852.025" y="1318.86" width="11.1654" height="11.1654"/>
  <rect class="fil16" x="870.537" y="1318.86" width="11.1654" height="11.1654"/>
  <rect class="fil16" x="889.049" y="1318.86" width="11.1654" height="11.1654"/>
  <rect class="fil16" x="907.561" y="1318.86" width="11.1654" height="11.1654"/>
  <path class="fil4" d="M524.51 1363.13l499.585 0c5.85945,0 10.6524,4.80237 10.6524,10.6512l0 30.4193c0,5.84764 -4.80355,10.6512 -10.6524,10.6512l-499.585 0c-5.84882,0 -10.6524,-4.79292 -10.6524,-10.6512l0 -30.4193c0,-5.85827 4.79292,-10.6512 10.6524,-10.6512z"/>
  <circle class="fil14" cx="539.932" cy="1389.83" r="9.69074"/>
  <circle class="fil14" cx="565.145" cy="1389.83" r="9.69074"/>
  <circle class="fil14" cx="590.357" cy="1389.83" r="9.69074"/>
  <circle class="fil15" cx="983.754" cy="1389.83" r="9.69074"/>
  <circle class="fil15" cx="1008.97" cy="1389.83" r="9.69074"/>
  <rect class="fil5" x="612.687" y="1376.06" width="323.233" height="25.8588"/>
  <rect class="fil16" x="629.88" y="1383.51" width="11.1654" height="11.1654"/>
  <rect class="fil16" x="648.392" y="1383.51" width="11.1654" height="11.1654"/>
  <rect class="fil16" x="666.904" y="1383.51" width="11.1654" height="11.1654"/>
  <rect class="fil16" x="685.416" y="1383.51" width="11.1654" height="11.1654"/>
  <rect class="fil16" x="703.928" y="1383.51" width="11.1654" height="11.1654"/>
  <rect class="fil16" x="722.44" y="1383.51" width="11.1654" height="11.1654"/>
  <rect class="fil16" x="740.952" y="1383.51" width="11.1654" height="11.1654"/>
  <rect class="fil16" x="759.464" y="1383.51" width="11.1654" height="11.1654"/>
  <rect class="fil16" x="777.976" y="1383.51" width="11.1654" height="11.1654"/>
  <rect class="fil16" x="796.488" y="1383.51" width="11.1654" height="11.1654"/>
  <rect class="fil16" x="815" y="1383.51" width="11.1654" height="11.1654"/>
  <rect class="fil16" x="833.513" y="1383.51" width="11.1654" height="11.1654"/>
  <rect class="fil16" x="852.025" y="1383.51" width="11.1654" height="11.1654"/>
  <rect class="fil16" x="870.537" y="1383.51" width="11.1654" height="11.1654"/>
  <rect class="fil16" x="889.049" y="1383.51" width="11.1654" height="11.1654"/>
  <rect class="fil16" x="907.561" y="1383.51" width="11.1654" height="11.1654"/>
  <circle class="fil12" cx="1012.85" cy="1017.07" r="11.5209"/>
  <circle class="fil5" cx="1012.85" cy="1017.07" r="7.32332"/>
  <circle class="fil12" cx="535.756" cy="1017.07" r="11.5209"/>
  <circle class="fil5" cx="535.756" cy="1017.07" r="7.32332"/>
 </g>
</svg>
